HIERARCHY
ROOT Hips
{
	OFFSET 0.000000 0.000000 0.000000
	CHANNELS 6 Xposition Yposition Zposition Zrotation Yrotation Xrotation 
	JOINT Spine1
	{
		OFFSET -0.013727 5.003762 -0.053727
		CHANNELS 3 Zrotation Yrotation Xrotation
		JOINT Spine2
		{
			OFFSET -0.000000 7.125302 -0.029825
			CHANNELS 3 Zrotation Yrotation Xrotation
			JOINT Chest
			{
				OFFSET -0.000001 7.550064 -0.815971
				CHANNELS 3 Zrotation Yrotation Xrotation
				JOINT Neck1
				{
					OFFSET -0.181677 26.311296 -0.553349
					CHANNELS 3 Zrotation Yrotation Xrotation
					JOINT Neck2
					{
						OFFSET -0.000003 7.709399 2.302585
						CHANNELS 3 Zrotation Yrotation Xrotation
						JOINT Head
						{
							OFFSET -0.000005 6.128914 1.953708
							CHANNELS 3 Zrotation Yrotation Xrotation
							JOINT HeadEnd
							{
								OFFSET 0.003598 16.065401 -1.835379
								CHANNELS 3 Zrotation Yrotation Xrotation
								End Site
								{
									OFFSET 0.000000 0.000000 0.000000
								}
							}
							JOINT Jaw
							{
								OFFSET 0.002637 0.475591 3.094941
								CHANNELS 3 Zrotation Yrotation Xrotation
								End Site
								{
									OFFSET 0.000000 0.000000 0.000000
								}
							}
							JOINT LeftEye
							{
								OFFSET 3.206380 5.380207 7.586883
								CHANNELS 3 Zrotation Yrotation Xrotation
								End Site
								{
									OFFSET 0.000000 0.000000 0.000000
								}
							}
							JOINT RightEye
							{
								OFFSET -3.222440 5.361866 7.558233
								CHANNELS 3 Zrotation Yrotation Xrotation
								End Site
								{
									OFFSET 0.000000 0.000000 0.000000
								}
							}
						}
					}
				}
				JOINT LeftShoulder
				{
					OFFSET 1.621652 23.237165 5.113413
					CHANNELS 3 Zrotation Yrotation Xrotation
					JOINT LeftArm
					{
						OFFSET 14.919845 0.000001 -5.502326
						CHANNELS 3 Zrotation Yrotation Xrotation
						JOINT LeftForeArm
						{
							OFFSET 28.739309 0.000002 -0.002588
							CHANNELS 3 Zrotation Yrotation Xrotation
							JOINT LeftHand
							{
								OFFSET 27.093979 -0.000003 0.002608
								CHANNELS 3 Zrotation Yrotation Xrotation
								JOINT LeftHandThumb1
								{
									OFFSET 2.276481 -1.392045 3.191413
									CHANNELS 3 Zrotation Yrotation Xrotation
									JOINT LeftHandThumb2
									{
										OFFSET 4.012841 -1.828126 1.641656
										CHANNELS 3 Zrotation Yrotation Xrotation
										JOINT LeftHandThumb3
										{
											OFFSET 2.798517 0.000001 -0.000004
											CHANNELS 3 Zrotation Yrotation Xrotation
											JOINT LeftHandThumbEnd
											{
												OFFSET 3.180791 -0.000002 0.000003
												CHANNELS 3 Zrotation Yrotation Xrotation
												End Site
												{
													OFFSET 0.000000 0.000000 0.000000
												}
											}
										}
									}
								}
								JOINT LeftHandIndex1
								{
									OFFSET 3.247554 -0.531998 2.296169
									CHANNELS 3 Zrotation Yrotation Xrotation
									JOINT LeftHandIndex2
									{
										OFFSET 6.364578 0.012061 0.178599
										CHANNELS 3 Zrotation Yrotation Xrotation
										JOINT LeftHandIndex3
										{
											OFFSET 3.662367 0.000001 0.000000
											CHANNELS 3 Zrotation Yrotation Xrotation
											JOINT LeftHandIndex4
											{
												OFFSET 2.329243 0.000003 0.000004
												CHANNELS 3 Zrotation Yrotation Xrotation
												JOINT LeftHandIndexEnd
												{
													OFFSET 2.759619 -0.180538 -0.113024
													CHANNELS 3 Zrotation Yrotation Xrotation
													End Site
													{
														OFFSET 0.000000 0.000000 0.000000
													}
												}
											}
										}
									}
								}
								JOINT LeftHandMiddle1
								{
									OFFSET 3.163498 0.240982 1.000332
									CHANNELS 3 Zrotation Yrotation Xrotation
									JOINT LeftHandMiddle2
									{
										OFFSET 6.190778 -0.259276 -1.002548
										CHANNELS 3 Zrotation Yrotation Xrotation
										JOINT LeftHandMiddle3
										{
											OFFSET 4.356522 -0.000006 0.000000
											CHANNELS 3 Zrotation Yrotation Xrotation
											JOINT LeftHandMiddle4
											{
												OFFSET 2.996875 -0.000006 0.000000
												CHANNELS 3 Zrotation Yrotation Xrotation
												JOINT LeftHandMiddleEnd
												{
													OFFSET 2.304294 -0.294572 -0.031740
													CHANNELS 3 Zrotation Yrotation Xrotation
													End Site
													{
														OFFSET 0.000000 0.000000 0.000000
													}
												}
											}
										}
									}
								}
								JOINT LeftHandRing1
								{
									OFFSET 2.882642 -0.053650 -0.322543
									CHANNELS 3 Zrotation Yrotation Xrotation
									JOINT LeftHandRing2
									{
										OFFSET 5.854543 -0.486203 -1.373841
										CHANNELS 3 Zrotation Yrotation Xrotation
										JOINT LeftHandRing3
										{
											OFFSET 4.350581 0.000001 0.000003
											CHANNELS 3 Zrotation Yrotation Xrotation
											JOINT LeftHandRing4
											{
												OFFSET 2.651325 0.000008 0.000004
												CHANNELS 3 Zrotation Yrotation Xrotation
												JOINT LeftHandRingEnd
												{
													OFFSET 1.936110 0.077687 -0.000070
													CHANNELS 3 Zrotation Yrotation Xrotation
													End Site
													{
														OFFSET 0.000000 0.000000 0.000000
													}
												}
											}
										}
									}
								}
								JOINT LeftHandPinky1
								{
									OFFSET 2.865499 -0.310004 -1.600378
									CHANNELS 3 Zrotation Yrotation Xrotation
									JOINT LeftHandPinky2
									{
										OFFSET 5.087853 -1.331141 -1.771231
										CHANNELS 3 Zrotation Yrotation Xrotation
										JOINT LeftHandPinky3
										{
											OFFSET 3.070975 0.000003 0.000000
											CHANNELS 3 Zrotation Yrotation Xrotation
											JOINT LeftHandPinky4
											{
												OFFSET 1.549667 0.000000 0.000000
												CHANNELS 3 Zrotation Yrotation Xrotation
												JOINT LeftHandPinkyEnd
												{
													OFFSET 1.944894 -0.157802 0.057219
													CHANNELS 3 Zrotation Yrotation Xrotation
													End Site
													{
														OFFSET 0.000000 0.000000 0.000000
													}
												}
											}
										}
									}
								}
							}
						}
					}
				}
				JOINT RightShoulder
				{
					OFFSET -1.380118 23.180309 5.214158
					CHANNELS 3 Zrotation Yrotation Xrotation
					JOINT RightArm
					{
						OFFSET -15.037197 0.000012 -5.545604
						CHANNELS 3 Zrotation Yrotation Xrotation
						JOINT RightForeArm
						{
							OFFSET -28.736639 0.000002 -0.002598
							CHANNELS 3 Zrotation Yrotation Xrotation
							JOINT RightHand
							{
								OFFSET -27.133617 0.000001 0.002613
								CHANNELS 3 Zrotation Yrotation Xrotation
								JOINT RightHandThumb1
								{
									OFFSET -2.274036 -1.383990 3.163128
									CHANNELS 3 Zrotation Yrotation Xrotation
									JOINT RightHandThumb2
									{
										OFFSET -4.011429 -1.827467 1.640915
										CHANNELS 3 Zrotation Yrotation Xrotation
										JOINT RightHandThumb3
										{
											OFFSET -2.794935 -0.000003 -0.000003
											CHANNELS 3 Zrotation Yrotation Xrotation
											JOINT RightHandThumbEnd
											{
												OFFSET -3.183855 0.000003 0.000000
												CHANNELS 3 Zrotation Yrotation Xrotation
												End Site
												{
													OFFSET 0.000000 0.000000 0.000000
												}
											}
										}
									}
								}
								JOINT RightHandIndex1
								{
									OFFSET -3.253269 -0.520060 2.282866
									CHANNELS 3 Zrotation Yrotation Xrotation
									JOINT RightHandIndex2
									{
										OFFSET -6.341918 0.012473 0.178266
										CHANNELS 3 Zrotation Yrotation Xrotation
										JOINT RightHandIndex3
										{
											OFFSET -3.654874 -0.000009 -0.000001
											CHANNELS 3 Zrotation Yrotation Xrotation
											JOINT RightHandIndex4
											{
												OFFSET -2.327586 -0.000000 0.000001
												CHANNELS 3 Zrotation Yrotation Xrotation
												JOINT RightHandIndexEnd
												{
													OFFSET -2.761789 -0.180657 -0.113078
													CHANNELS 3 Zrotation Yrotation Xrotation
													End Site
													{
														OFFSET 0.000000 0.000000 0.000000
													}
												}
											}
										}
									}
								}
								JOINT RightHandMiddle1
								{
									OFFSET -3.168105 0.246593 1.001030
									CHANNELS 3 Zrotation Yrotation Xrotation
									JOINT RightHandMiddle2
									{
										OFFSET -6.180829 -0.258836 -1.000896
										CHANNELS 3 Zrotation Yrotation Xrotation
										JOINT RightHandMiddle3
										{
											OFFSET -4.348905 -0.000000 -0.000000
											CHANNELS 3 Zrotation Yrotation Xrotation
											JOINT RightHandMiddle4
											{
												OFFSET -3.000243 -0.000002 -0.000002
												CHANNELS 3 Zrotation Yrotation Xrotation
												JOINT RightHandMiddleEnd
												{
													OFFSET -2.302518 -0.294370 -0.031706
													CHANNELS 3 Zrotation Yrotation Xrotation
													End Site
													{
														OFFSET 0.000000 0.000000 0.000000
													}
												}
											}
										}
									}
								}
								JOINT RightHandRing1
								{
									OFFSET -2.885693 -0.067952 -0.308858
									CHANNELS 3 Zrotation Yrotation Xrotation
									JOINT RightHandRing2
									{
										OFFSET -5.854198 -0.486132 -1.373731
										CHANNELS 3 Zrotation Yrotation Xrotation
										JOINT RightHandRing3
										{
											OFFSET -4.338814 -0.000003 -0.000000
											CHANNELS 3 Zrotation Yrotation Xrotation
											JOINT RightHandRing4
											{
												OFFSET -2.654905 -0.000006 0.000004
												CHANNELS 3 Zrotation Yrotation Xrotation
												JOINT RightHandRingEnd
												{
													OFFSET -1.933570 0.077524 -0.000053
													CHANNELS 3 Zrotation Yrotation Xrotation
													End Site
													{
														OFFSET 0.000000 0.000000 0.000000
													}
												}
											}
										}
									}
								}
								JOINT RightHandPinky1
								{
									OFFSET -2.866429 -0.342799 -1.584145
									CHANNELS 3 Zrotation Yrotation Xrotation
									JOINT RightHandPinky2
									{
										OFFSET -5.091370 -1.332054 -1.772385
										CHANNELS 3 Zrotation Yrotation Xrotation
										JOINT RightHandPinky3
										{
											OFFSET -3.062666 -0.000007 0.000000
											CHANNELS 3 Zrotation Yrotation Xrotation
											JOINT RightHandPinky4
											{
												OFFSET -1.546527 0.000006 -0.000002
												CHANNELS 3 Zrotation Yrotation Xrotation
												JOINT RightHandPinkyEnd
												{
													OFFSET -1.945122 -0.157722 0.057211
													CHANNELS 3 Zrotation Yrotation Xrotation
													End Site
													{
														OFFSET 0.000000 0.000000 0.000000
													}
												}
											}
										}
									}
								}
							}
						}
					}
				}
			}
		}
	}
	JOINT LeftLeg
	{
		OFFSET 10.043214 -8.434526 2.595655
		CHANNELS 3 Zrotation Yrotation Xrotation
		JOINT LeftShin
		{
			OFFSET -0.000001 -43.221752 -0.802913
			CHANNELS 3 Zrotation Yrotation Xrotation
			JOINT LeftFoot
			{
				OFFSET 0.000001 -42.155094 -3.481523
				CHANNELS 3 Zrotation Yrotation Xrotation
				JOINT LeftToeBase
				{
					OFFSET 0.000000 -5.059475 13.231529
					CHANNELS 3 Zrotation Yrotation Xrotation
					JOINT LeftToeEnd
					{
						OFFSET -0.009607 -1.647615 6.513017
						CHANNELS 3 Zrotation Yrotation Xrotation
						End Site
						{
							OFFSET 0.000000 0.000000 0.000000
						}
					}
				}
			}
		}
	}
	JOINT RightLeg
	{
		OFFSET -10.047277 -8.295259 2.620317
		CHANNELS 3 Zrotation Yrotation Xrotation
		JOINT RightShin
		{
			OFFSET 0.000001 -43.362209 -0.805556
			CHANNELS 3 Zrotation Yrotation Xrotation
			JOINT RightFoot
			{
				OFFSET 0.000002 -42.117393 -3.478398
				CHANNELS 3 Zrotation Yrotation Xrotation
				JOINT RightToeBase
				{
					OFFSET -0.000001 -5.079609 13.284196
					CHANNELS 3 Zrotation Yrotation Xrotation
					JOINT RightToeEnd
					{
						OFFSET 0.009532 -1.634384 6.460591
						CHANNELS 3 Zrotation Yrotation Xrotation
						End Site
						{
							OFFSET 0.000000 0.000000 0.000000
						}
					}
				}
			}
		}
	}
}
MOTION
Frames: 5
Frame Time: 0.033333
7.398559 97.047562 16.738073 -0.981405 4.626837 0.419248 -1.238495 -0.350569 1.049624 -0.197362 -1.418002 -4.389182 -0.757016 -4.009019 9.282646 -10.816750 10.734605 19.951103 2.934291 12.959414 -3.385977 -1.498255 14.629964 -9.504665 0.000077 -0.000023 0.000006 0.010658 -0.049791 -0.019556 0.677991 -3.785825 -10.750303 -0.666944 3.681221 -10.757436 -1.317932 -9.940993 8.431867 -21.105474 -27.618183 -42.998920 176.945236 -50.321056 -178.193710 6.913377 -2.175228 -1.633271 -5.882102 9.861278 0.702590 -10.936859 -0.360576 7.156197 -0.000001 8.774811 -0.000002 -16.975405 17.658772 5.650081 -1.844031 2.498502 -2.507275 -10.163589 4.678938 4.621104 -20.975994 -0.000005 0.000002 -21.226255 2.451693 -3.593994 -0.000000 -0.000004 0.000000 -1.362680 2.240797 -0.746321 -21.334892 0.584907 3.008320 -13.821198 -0.000005 0.000002 -23.887131 -0.249080 -0.839480 -60.325306 2.815607 -1.303872 -0.294024 1.679686 0.833256 -14.218190 0.093214 1.300578 -34.212002 -0.287565 0.967171 -20.033178 0.964533 1.212842 0.000001 0.000001 -0.000000 -3.440384 0.788232 0.501655 -15.928167 -3.167308 2.999704 -6.338817 -0.000001 0.000000 -18.123413 3.648175 -4.905662 -0.000004 -0.000001 -0.000002 2.910797 -2.906219 12.612826 66.164680 57.283020 34.081909 179.144958 38.878490 -179.466690 -8.968412 -0.500577 -22.806021 2.243540 -5.255032 -3.180157 14.282875 -0.826596 6.952496 0.000001 -12.690590 0.000002 15.328907 -17.670210 2.777657 1.665665 -1.955920 -2.878296 4.727793 -4.170584 4.993919 11.020511 0.000000 0.000000 12.109031 -3.735713 -2.866780 -0.000000 0.000001 -0.000001 1.291986 -1.928549 -1.498087 14.800111 0.567464 3.865603 14.242553 -1.341738 -6.660649 19.631937 0.143923 -0.648244 48.853535 -0.617526 -6.280017 0.353028 -1.511149 -0.031939 20.222767 3.684302 2.316628 18.787245 0.000003 -0.000002 10.751610 -0.479870 1.397903 0.000001 0.000002 0.000001 3.273804 0.305946 -0.580109 21.486788 11.830359 2.266132 8.162916 -0.000001 -0.000000 18.399055 -3.798981 -4.940570 0.000003 -0.000001 -0.000002 7.102698 10.753097 -21.171581 -0.110419 -0.439998 29.552393 -5.481292 3.675086 -7.250136 1.621524 -1.619417 2.543796 0.000000 0.000000 0.000002 -20.583212 -8.909548 -0.048319 0.109275 1.267280 17.845537 22.293070 -6.175861 7.005755 -1.472498 1.068848 -4.614216 0.000000 0.000000 -0.000002 
5.223564 96.235451 15.757627 -0.758268 3.313304 1.418177 -1.470015 -0.355762 1.311287 -0.426918 -1.243359 -4.314725 -1.445794 -3.751198 9.159094 -11.422817 11.027631 19.131811 3.152525 13.561800 -3.454981 -1.448368 15.058487 -10.118299 0.000077 -0.000024 0.000006 0.013934 -0.061510 -0.011903 0.697540 -3.788151 -10.760745 -0.677697 3.663513 -10.747602 -0.854191 -10.046921 8.366610 -20.466988 -27.303436 -44.770897 176.976273 -50.664326 -177.959305 6.805432 -2.267376 -0.679415 -5.882099 9.861279 0.702589 -10.936858 -0.360574 7.156197 0.000001 8.774810 0.000000 -16.757456 17.714745 5.721451 -1.844031 2.498503 -2.507275 -10.163589 4.678941 4.621104 -20.975994 -0.000003 0.000001 -21.226254 2.451691 -3.593994 0.000001 -0.000006 -0.000001 -1.362681 2.240796 -0.746324 -21.334892 0.584909 3.008320 -13.821195 -0.000003 0.000002 -23.887129 -0.249079 -0.839482 -60.095798 2.758912 -1.204959 -0.294025 1.679685 0.833255 -14.218194 0.093215 1.300579 -34.212002 -0.287563 0.967169 -20.033176 0.964536 1.212841 0.000001 0.000000 -0.000000 -3.440387 0.788233 0.501657 -15.928167 -3.167306 2.999705 -6.338818 -0.000001 0.000001 -18.123413 3.648176 -4.905660 -0.000004 -0.000001 -0.000002 2.430412 -2.663146 12.460250 66.411995 58.884712 33.541580 179.225662 38.574673 -179.526993 -9.505046 -0.681067 -21.643801 2.243540 -5.255032 -3.180154 14.282875 -0.826592 6.952494 -0.000004 -12.690590 0.000002 15.381840 -17.683786 2.822270 1.665664 -1.955919 -2.878295 4.727794 -4.170583 4.993919 11.020509 0.000003 0.000000 12.109032 -3.735709 -2.866779 0.000000 -0.000000 -0.000001 1.291984 -1.928547 -1.498089 14.800111 0.567470 3.865604 14.242553 -1.341733 -6.660646 19.631937 0.143928 -0.648244 49.043877 -0.625161 -6.265832 0.353028 -1.511149 -0.031940 20.222767 3.684308 2.316627 18.787245 0.000007 0.000000 10.751609 -0.479868 1.397904 0.000000 0.000002 0.000001 3.273805 0.305947 -0.580109 21.486790 11.830364 2.266129 8.162917 0.000002 0.000000 18.399054 -3.798980 -4.940567 0.000002 -0.000001 -0.000003 8.141297 12.051483 -23.756002 -0.166947 -0.487518 31.587013 -6.428878 3.948582 -7.234819 1.615231 -1.615691 2.152802 0.000000 -0.000000 0.000002 -19.102468 -9.453188 -2.216332 0.103215 1.031357 17.340258 22.844652 -5.152545 -2.033550 -1.439293 1.085168 -1.583212 0.000000 0.000000 -0.000002 
3.156707 95.552513 14.685830 -0.972083 1.864850 2.056349 -1.140730 -0.311012 1.715810 -0.583910 -1.172582 -4.200650 -1.933845 -3.710856 9.297028 -12.466847 11.497334 18.079977 3.278874 14.207350 -3.475901 -1.645124 15.565203 -10.909709 0.000077 -0.000023 0.000006 0.010360 -0.069292 -0.027377 0.689688 -3.789184 -10.790812 -0.668553 3.637701 -10.769297 -0.771757 -9.925042 8.272963 -20.503168 -26.684980 -46.970562 177.358429 -50.624088 -178.152435 6.587548 -2.553204 -0.248606 -5.882101 9.861279 0.702590 -10.936857 -0.360573 7.156196 -0.000001 8.774813 -0.000000 -16.723679 17.674734 5.677332 -1.844031 2.498501 -2.507276 -10.163589 4.678941 4.621103 -20.975994 -0.000003 0.000000 -21.226255 2.451693 -3.593995 0.000000 -0.000006 -0.000001 -1.362682 2.240797 -0.746321 -21.334892 0.584910 3.008319 -13.821197 -0.000002 0.000001 -23.887129 -0.249078 -0.839483 -59.880711 2.643529 -1.148341 -0.294024 1.679686 0.833256 -14.218192 0.093216 1.300579 -34.212006 -0.287560 0.967166 -20.033176 0.964534 1.212840 0.000001 -0.000000 0.000000 -3.440385 0.788232 0.501654 -15.928165 -3.167304 2.999702 -6.338814 0.000001 0.000001 -18.123413 3.648175 -4.905662 -0.000004 -0.000000 -0.000002 1.935071 -2.265986 12.557982 65.392097 61.504318 32.027821 179.417725 38.641354 -179.549179 -10.008025 -0.810708 -20.617189 2.243538 -5.255029 -3.180154 14.282873 -0.826593 6.952497 -0.000005 -12.690585 0.000001 15.311559 -17.555611 2.849281 1.665663 -1.955918 -2.878299 4.727793 -4.170581 4.993921 11.020511 0.000002 0.000000 12.109029 -3.735708 -2.866779 -0.000001 0.000000 -0.000002 1.291983 -1.928547 -1.498087 14.800114 0.567467 3.865606 14.242553 -1.341734 -6.660650 19.631937 0.143923 -0.648241 48.955910 -0.701917 -6.129591 0.353030 -1.511150 -0.031941 20.222767 3.684306 2.316629 18.787245 0.000003 0.000000 10.751612 -0.479866 1.397905 0.000001 0.000002 0.000001 3.273804 0.305946 -0.580110 21.486788 11.830358 2.266132 8.162916 0.000000 0.000000 18.399048 -3.798975 -4.940565 0.000002 -0.000001 -0.000002 9.585808 13.556522 -25.665325 -0.238894 -0.534359 33.096607 -7.510983 4.213229 -6.866224 1.614924 -1.648651 1.853606 -0.000000 -0.000001 0.000002 -17.261381 -9.533589 -5.079154 0.115282 0.874301 18.882227 22.074757 -3.778611 -8.093431 -1.429205 1.096122 0.063898 -0.000000 -0.000000 -0.000001 
1.325206 95.133133 13.608082 -1.381559 0.463268 2.408500 -0.639469 -0.324480 2.141203 -0.655151 -1.168130 -4.000173 -2.192188 -3.930901 9.460286 -13.405887 11.934444 17.176434 3.265447 14.672980 -3.444846 -2.089661 16.133707 -11.875971 0.000076 -0.000023 0.000005 0.029319 -0.107450 -0.022251 0.707798 -3.841367 -10.808950 -0.656774 3.613024 -10.782938 -0.699717 -9.926972 8.140602 -21.771935 -25.375401 -49.180290 178.403458 -49.996998 -179.103500 6.735864 -2.700061 -0.083873 -5.882102 9.861278 0.702591 -10.936860 -0.360574 7.156196 -0.000000 8.774812 -0.000002 -16.800900 17.629629 5.588552 -1.844032 2.498502 -2.507276 -10.163589 4.678939 4.621103 -20.975996 -0.000004 0.000002 -21.226255 2.451694 -3.593994 0.000001 -0.000005 -0.000000 -1.362681 2.240796 -0.746322 -21.334887 0.584909 3.008320 -13.821195 -0.000003 0.000001 -23.887129 -0.249079 -0.839483 -59.923206 2.477187 -1.014335 -0.294025 1.679686 0.833255 -14.218194 0.093215 1.300578 -34.211998 -0.287567 0.967168 -20.033178 0.964533 1.212841 0.000000 0.000000 -0.000000 -3.440387 0.788233 0.501655 -15.928169 -3.167306 2.999703 -6.338814 -0.000002 0.000001 -18.123415 3.648177 -4.905662 -0.000004 -0.000000 -0.000002 1.305490 -1.954997 12.338768 64.391129 63.883144 30.636900 179.531662 38.990547 -179.681915 -10.211207 -0.974684 -19.872553 2.243541 -5.255033 -3.180156 14.282875 -0.826592 6.952496 -0.000003 -12.690587 0.000000 15.339305 -17.381029 2.927524 1.665664 -1.955919 -2.878297 4.727792 -4.170581 4.993917 11.020510 0.000003 0.000001 12.109031 -3.735710 -2.866778 -0.000000 0.000000 -0.000001 1.291985 -1.928548 -1.498088 14.800113 0.567468 3.865603 14.242554 -1.341737 -6.660646 19.631941 0.143923 -0.648242 48.986347 -0.793292 -5.988251 0.353027 -1.511149 -0.031939 20.222765 3.684305 2.316629 18.787243 0.000004 0.000001 10.751610 -0.479869 1.397905 0.000001 0.000002 0.000001 3.273805 0.305946 -0.580110 21.486792 11.830361 2.266132 8.162916 0.000001 0.000000 18.399054 -3.798976 -4.940566 0.000002 -0.000001 -0.000002 11.137058 14.935369 -26.568520 -0.246846 -0.555383 33.454437 -8.458837 4.326831 -6.076264 1.624611 -1.686943 1.778353 -0.000000 -0.000001 0.000002 -15.442574 -9.098190 -8.364729 0.122435 0.639533 22.117704 21.139584 -2.279041 -11.411690 -1.417217 1.078213 1.180217 -0.000000 -0.000000 -0.000001 
-0.164733 94.987587 12.845829 -1.664171 -0.552116 2.495858 -0.345996 -0.366412 2.501123 -0.680334 -1.330603 -3.870827 -2.237062 -4.241761 9.653831 -13.879375 12.052887 16.589388 3.168239 15.139827 -3.381434 -2.430073 16.618942 -12.437449 0.000077 -0.000024 0.000006 0.013241 -0.049479 -0.009514 0.687278 -3.781356 -10.787627 -0.673854 3.677143 -10.768700 -0.685620 -10.369682 8.284135 -23.820942 -23.777811 -50.804005 179.330032 -49.248806 -179.633408 6.969407 -2.626189 0.177225 -5.882100 9.861277 0.702589 -10.936860 -0.360574 7.156197 -0.000001 8.774814 -0.000000 -16.889887 17.614431 5.496864 -1.844030 2.498502 -2.507275 -10.163589 4.678938 4.621104 -20.975992 -0.000003 0.000002 -21.226250 2.451691 -3.593994 0.000000 -0.000005 -0.000000 -1.362680 2.240796 -0.746321 -21.334888 0.584908 3.008319 -13.821197 -0.000004 0.000003 -23.887129 -0.249077 -0.839480 -59.907360 2.459318 -1.023567 -0.294025 1.679686 0.833255 -14.218190 0.093214 1.300579 -34.211998 -0.287565 0.967172 -20.033178 0.964533 1.212842 0.000000 -0.000001 -0.000000 -3.440387 0.788232 0.501654 -15.928167 -3.167306 2.999704 -6.338817 -0.000001 0.000001 -18.123413 3.648174 -4.905660 -0.000004 -0.000000 -0.000002 0.856910 -1.991216 12.317997 62.876732 66.208008 28.901394 179.670441 39.565975 -179.683441 -10.022363 -1.369515 -19.107031 2.243539 -5.255033 -3.180155 14.282877 -0.826593 6.952497 -0.000003 -12.690591 0.000001 15.336199 -17.342724 2.879948 1.665665 -1.955918 -2.878294 4.727792 -4.170582 4.993917 11.020511 0.000004 -0.000002 12.109029 -3.735707 -2.866781 0.000000 -0.000000 -0.000001 1.291983 -1.928547 -1.498088 14.800113 0.567468 3.865603 14.242553 -1.341736 -6.660650 19.631939 0.143928 -0.648241 49.036568 -0.865925 -6.039988 0.353028 -1.511150 -0.031939 20.222769 3.684308 2.316628 18.787243 0.000004 -0.000000 10.751610 -0.479866 1.397905 0.000001 0.000002 0.000000 3.273804 0.305948 -0.580110 21.486797 11.830366 2.266130 8.162917 0.000001 0.000000 18.399055 -3.798978 -4.940567 0.000002 -0.000002 -0.000001 12.460278 15.664290 -26.500418 -0.223047 -0.583227 32.693493 -9.200612 4.424360 -4.932783 1.627087 -1.704001 1.613457 0.000000 -0.000000 0.000002 -14.075120 -8.784151 -10.817180 0.166871 0.614844 25.116112 20.264084 -1.008983 -12.713896 -1.422319 1.111989 1.428083 0.000000 0.000000 -0.000001 
